<svg width="307" height="297" viewBox="0 0 307 297" fill="none" xmlns="http://www.w3.org/2000/svg">
<rect width="307" height="297" rx="20" fill="white"/>
<path d="M91.025 133.5C87.3187 133.5 83.9164 131.45 82.1842 128.174L42.6686 53.4231C37.8712 44.348 48.2262 34.8 56.8832 40.3162L128.576 85.9999C131.064 87.585 132.725 90.1877 133.115 93.1116L136.99 122.178C137.79 128.173 133.126 133.5 127.078 133.5H91.025Z" fill="#1A1A1A"/>
<path d="M215.975 133.5C219.681 133.5 223.084 131.45 224.816 128.174L264.331 53.4231C269.129 44.348 258.774 34.8 250.117 40.3162L178.424 85.9999C175.936 87.585 174.275 90.1877 173.885 93.1116L170.01 122.178C169.21 128.173 173.874 133.5 179.922 133.5H215.975Z" fill="#1A1A1A"/>
<path d="M91.025 163.5C87.3187 163.5 83.9164 165.55 82.1842 168.826L42.6686 243.577C37.8712 252.652 48.2262 262.2 56.8832 256.684L128.576 211C131.064 209.415 132.725 206.812 133.115 203.888L136.99 174.822C137.79 168.827 133.126 163.5 127.078 163.5H91.025Z" fill="#1A1A1A"/>
<path d="M215.975 163.5C219.681 163.5 223.084 165.55 224.816 168.826L264.331 243.577C269.129 252.652 258.774 262.2 250.117 256.684L178.424 211C175.936 209.415 174.275 206.812 173.885 203.888L170.01 174.822C169.21 168.827 173.874 163.5 179.922 163.5H215.975Z" fill="#1A1A1A"/>
</svg>
